<svg width="32" height="33" viewBox="0 0 32 33" fill="none" xmlns="http://www.w3.org/2000/svg">
<g clip-path="url(#clip0_467_966)">
<path d="M17.334 28.8235H8.00065C7.29341 28.8235 6.61513 28.5425 6.11503 28.0424C5.61494 27.5423 5.33398 26.8641 5.33398 26.1568V7.49015C5.33398 6.78291 5.61494 6.10463 6.11503 5.60453C6.61513 5.10444 7.29341 4.82349 8.00065 4.82349H24.0007C24.7079 4.82349 25.3862 5.10444 25.8863 5.60453C26.3864 6.10463 26.6673 6.78291 26.6673 7.49015V14.1568" stroke="#1A72FA" stroke-width="2.66667" stroke-linecap="round" stroke-linejoin="round"/>
<path d="M12 24.8235H17.3333" stroke="#1A72FA" stroke-width="2.66667" stroke-linecap="round" stroke-linejoin="round"/>
<path d="M27.9993 20.8235H24.666C24.1356 20.8235 23.6269 21.0342 23.2518 21.4093C22.8767 21.7843 22.666 22.2931 22.666 22.8235C22.666 23.3539 22.8767 23.8626 23.2518 24.2377C23.6269 24.6128 24.1356 24.8235 24.666 24.8235H25.9993C26.5298 24.8235 27.0385 25.0342 27.4136 25.4093C27.7886 25.7843 27.9993 26.2931 27.9993 26.8235C27.9993 27.3539 27.7886 27.8626 27.4136 28.2377C27.0385 28.6128 26.5298 28.8235 25.9993 28.8235H22.666" stroke="#1A72FA" stroke-width="2.66667" stroke-linecap="round" stroke-linejoin="round"/>
<path d="M25.334 28.8236V30.1569M25.334 19.4902V20.8236" stroke="#1A72FA" stroke-width="2.66667" stroke-linecap="round" stroke-linejoin="round"/>
</g>
<defs>
<clipPath id="clip0_467_966">
<rect width="32" height="32" fill="white" transform="translate(0 0.823486)"/>
</clipPath>
</defs>
</svg>
