<svg width="25" height="24" viewBox="0 0 25 24" fill="none" xmlns="http://www.w3.org/2000/svg">
<g clip-path="url(#clip0_264_765)">
<path d="M13.6629 2.16782L21.6839 7.99582C22.3779 8.49982 22.6679 9.39282 22.4029 10.2078L19.3389 19.6378C19.2098 20.0351 18.9583 20.3813 18.6204 20.6269C18.2825 20.8725 17.8756 21.0048 17.4579 21.0048H7.54186C7.12415 21.0048 6.71719 20.8725 6.37928 20.6269C6.04138 20.3813 5.78989 20.0351 5.66086 19.6378L2.59686 10.2078C2.46771 9.81044 2.46771 9.38236 2.59688 8.98497C2.72605 8.58759 2.97774 8.24132 3.31586 7.99582L11.3369 2.16782C11.6749 1.92213 12.082 1.78979 12.4999 1.78979C12.9177 1.78979 13.3249 1.92213 13.6629 2.16782Z" stroke="#1A72FA" stroke-width="2" stroke-linecap="round" stroke-linejoin="round"/>
<path d="M12.498 13.0005C13.2937 13.0005 14.0568 12.6844 14.6194 12.1218C15.182 11.5592 15.498 10.7961 15.498 10.0005C15.498 9.20484 15.182 8.44178 14.6194 7.87917C14.0568 7.31656 13.2937 7.00049 12.498 7.00049C11.7024 7.00049 10.9393 7.31656 10.3767 7.87917C9.81412 8.44178 9.49805 9.20484 9.49805 10.0005C9.49805 10.7961 9.81412 11.5592 10.3767 12.1218C10.9393 12.6844 11.7024 13.0005 12.498 13.0005Z" stroke="#1A72FA" stroke-width="2" stroke-linecap="round" stroke-linejoin="round"/>
<path d="M6.5 20.703V20C6.5 18.9391 6.92143 17.9217 7.67157 17.1716C8.42172 16.4214 9.43913 16 10.5 16H14.5C15.5609 16 16.5783 16.4214 17.3284 17.1716C18.0786 17.9217 18.5 18.9391 18.5 20V20.707" stroke="#1A72FA" stroke-width="2" stroke-linecap="round" stroke-linejoin="round"/>
</g>
<defs>
<clipPath id="clip0_264_765">
<rect width="24" height="24" fill="white" transform="translate(0.5)"/>
</clipPath>
</defs>
</svg>
