<svg width="32" height="33" viewBox="0 0 32 33" fill="none" xmlns="http://www.w3.org/2000/svg">
<g clip-path="url(#clip0_467_999)">
<path d="M5.33398 16.8236C5.33398 17.1772 5.47446 17.5163 5.72451 17.7664C5.97456 18.0164 6.3137 18.1569 6.66732 18.1569C7.02094 18.1569 7.36008 18.0164 7.61013 17.7664C7.86018 17.5163 8.00065 17.1772 8.00065 16.8236C8.00065 16.4699 7.86018 16.1308 7.61013 15.8808C7.36008 15.6307 7.02094 15.4902 6.66732 15.4902C6.3137 15.4902 5.97456 15.6307 5.72451 15.8808C5.47446 16.1308 5.33398 16.4699 5.33398 16.8236Z" stroke="#1A72FA" stroke-width="2.66667" stroke-linecap="round" stroke-linejoin="round"/>
<path d="M14.666 16.8236C14.666 17.1772 14.8065 17.5163 15.0565 17.7664C15.3066 18.0164 15.6457 18.1569 15.9993 18.1569C16.353 18.1569 16.6921 18.0164 16.9422 17.7664C17.1922 17.5163 17.3327 17.1772 17.3327 16.8236C17.3327 16.4699 17.1922 16.1308 16.9422 15.8808C16.6921 15.6307 16.353 15.4902 15.9993 15.4902C15.6457 15.4902 15.3066 15.6307 15.0565 15.8808C14.8065 16.1308 14.666 16.4699 14.666 16.8236Z" stroke="#1A72FA" stroke-width="2.66667" stroke-linecap="round" stroke-linejoin="round"/>
<path d="M24 16.8236C24 17.1772 24.1405 17.5163 24.3905 17.7664C24.6406 18.0164 24.9797 18.1569 25.3333 18.1569C25.687 18.1569 26.0261 18.0164 26.2761 17.7664C26.5262 17.5163 26.6667 17.1772 26.6667 16.8236C26.6667 16.4699 26.5262 16.1308 26.2761 15.8808C26.0261 15.6307 25.687 15.4902 25.3333 15.4902C24.9797 15.4902 24.6406 15.6307 24.3905 15.8808C24.1405 16.1308 24 16.4699 24 16.8236Z" stroke="#1A72FA" stroke-width="2.66667" stroke-linecap="round" stroke-linejoin="round"/>
</g>
<defs>
<clipPath id="clip0_467_999">
<rect width="32" height="32" fill="white" transform="translate(0 0.823486)"/>
</clipPath>
</defs>
</svg>
