<svg width="32" height="33" viewBox="0 0 32 33" fill="none" xmlns="http://www.w3.org/2000/svg">
<g clip-path="url(#clip0_467_984)">
<path d="M20 15.4902V15.5036" stroke="#1A72FA" stroke-width="2.66667" stroke-linecap="round" stroke-linejoin="round"/>
<path d="M6.89841 11.9943C6.31361 11.5448 5.86446 10.9424 5.60062 10.2536C5.33678 9.56487 5.26851 8.81656 5.40336 8.09143C5.53821 7.36629 5.87093 6.69256 6.36474 6.14469C6.85856 5.59683 7.49424 5.19617 8.20152 4.98699C8.90881 4.77781 9.66016 4.76826 10.3725 4.9594C11.0849 5.15054 11.7306 5.53492 12.2381 6.07006C12.7457 6.6052 13.0954 7.27027 13.2487 7.99174C13.4019 8.71322 13.3527 9.46301 13.1064 10.1583" stroke="#1A72FA" stroke-width="2.66667" stroke-linecap="round" stroke-linejoin="round"/>
<path d="M21.334 6.15674V11.2274C22.9842 12.1822 24.2405 13.6933 24.878 15.4901H26.666C27.0196 15.4901 27.3588 15.6305 27.6088 15.8806C27.8589 16.1306 27.9993 16.4698 27.9993 16.8234V19.4901C27.9993 19.8437 27.8589 20.1828 27.6088 20.4329C27.3588 20.6829 27.0196 20.8234 26.666 20.8234H24.8767C24.4287 22.0901 23.6673 23.2234 22.666 24.1207V26.8234C22.666 27.3538 22.4553 27.8625 22.0802 28.2376C21.7051 28.6127 21.1964 28.8234 20.666 28.8234C20.1356 28.8234 19.6269 28.6127 19.2518 28.2376C18.8767 27.8625 18.666 27.3538 18.666 26.8234V26.0461C18.2254 26.1199 17.7794 26.1569 17.3327 26.1567H11.9993C11.5526 26.1569 11.1066 26.1199 10.666 26.0461V26.8234C10.666 27.3538 10.4553 27.8625 10.0802 28.2376C9.70514 28.6127 9.19644 28.8234 8.666 28.8234C8.13557 28.8234 7.62686 28.6127 7.25179 28.2376C6.87672 27.8625 6.666 27.3538 6.666 26.8234V24.1567V24.1207C5.45795 23.0407 4.60637 21.6192 4.22398 20.0446C3.84159 18.4699 3.94642 16.8162 4.52459 15.3024C5.10276 13.7886 6.12702 12.486 7.46178 11.5672C8.79655 10.6483 10.3789 10.1565 11.9993 10.1567H15.3327L21.3327 6.15674H21.334Z" stroke="#1A72FA" stroke-width="2.66667" stroke-linecap="round" stroke-linejoin="round"/>
</g>
<defs>
<clipPath id="clip0_467_984">
<rect width="32" height="32" fill="white" transform="translate(0 0.823486)"/>
</clipPath>
</defs>
</svg>
