<svg width="64" height="64" viewBox="0 0 64 64" fill="none" xmlns="http://www.w3.org/2000/svg">
<path fill-rule="evenodd" clip-rule="evenodd" d="M18.4593 15.875C17.7116 15.875 17.1055 16.4811 17.1055 17.2288C17.1055 17.9765 17.7116 18.5826 18.4593 18.5826H55.3817C55.9935 18.5826 56.4894 19.0786 56.4894 19.6903V44.3053C56.4894 44.917 55.9935 45.413 55.3817 45.413H32.04H18.4593C17.7116 45.413 17.1055 46.0191 17.1055 46.7668C17.1055 47.5145 17.7116 48.1206 18.4593 48.1206H32.04H55.3817C57.4889 48.1206 59.1971 46.4124 59.1971 44.3053V19.6903C59.1971 17.5832 57.4889 15.875 55.3817 15.875H18.4593ZM35.6648 27.8539L35.6649 29.2739H40.9469C40.5421 28.433 39.682 27.8539 38.6881 27.8539H35.6648ZM32.6317 29.2739H33.2526L33.2525 26.777C33.2524 26.3545 33.4697 25.9827 33.7986 25.7672C33.9862 25.6339 34.2157 25.5555 34.4634 25.5555H38.6881C40.9654 25.5555 42.8762 27.1411 43.3687 29.2739H44.1036C44.7026 29.2739 45.1881 29.7595 45.1881 30.3585C45.1881 30.9575 44.7026 31.4431 44.1036 31.4431H43.3694C42.8785 33.5718 40.9711 35.1633 38.6881 35.1633H35.6652L35.6653 38.3326C35.6654 38.9987 35.1254 39.5388 34.4593 39.5388C33.7931 39.5388 33.2531 38.9989 33.2531 38.3327L33.2527 31.4431H32.6317C32.0327 31.4431 31.5471 30.9575 31.5471 30.3585C31.5471 29.7595 32.0327 29.2739 32.6317 29.2739ZM38.6881 32.8649C39.6846 32.8649 40.5439 32.2835 40.9478 31.4431H35.665L35.665 32.8649H38.6881Z" fill="#025AE9"/>
<path opacity="0.4" fill-rule="evenodd" clip-rule="evenodd" d="M12.3083 23.2617C11.5607 23.2617 10.9545 23.8678 10.9545 24.6155C10.9545 25.3632 11.5607 25.9694 12.3083 25.9694L19.6928 25.9694C20.4405 25.9694 21.0467 25.3632 21.0467 24.6155C21.0467 23.8678 20.4405 23.2617 19.6928 23.2617L12.3083 23.2617ZM7.26228 32C7.26228 31.2523 7.86841 30.6462 8.6161 30.6462L18.4621 30.6462C19.2098 30.6462 19.8159 31.2523 19.8159 32C19.8159 32.7477 19.2098 33.3539 18.4621 33.3539L8.6161 33.3539C7.86841 33.3539 7.26228 32.7477 7.26228 32ZM4.80078 39.3845C4.80078 38.6368 5.40691 38.0307 6.1546 38.0307L18.4621 38.0307C19.2098 38.0307 19.8159 38.6368 19.8159 39.3845C19.8159 40.1322 19.2098 40.7383 18.4621 40.7383L6.1546 40.7383C5.40691 40.7383 4.80078 40.1322 4.80078 39.3845Z" fill="#0057E4"/>
</svg>
