<svg width="29" height="29" viewBox="0 0 29 29" fill="none" xmlns="http://www.w3.org/2000/svg">
<g clip-path="url(#clip0_264_652)">
<path d="M5.44531 6.6086C5.44531 6.30014 5.56785 6.00432 5.78596 5.7862C6.00407 5.56809 6.2999 5.44556 6.60836 5.44556H11.2605C11.569 5.44556 11.8648 5.56809 12.0829 5.7862C12.301 6.00432 12.4236 6.30014 12.4236 6.6086V11.2608C12.4236 11.5692 12.301 11.8651 12.0829 12.0832C11.8648 12.3013 11.569 12.4238 11.2605 12.4238H6.60836C6.2999 12.4238 6.00407 12.3013 5.78596 12.0832C5.56785 11.8651 5.44531 11.5692 5.44531 11.2608V6.6086Z" stroke="#1482D9" stroke-width="2.32609" stroke-linecap="round" stroke-linejoin="round"/>
<path d="M8.93555 20.5652V20.5764" stroke="#1482D9" stroke-width="2.32609" stroke-linecap="round" stroke-linejoin="round"/>
<path d="M17.0762 6.6086C17.0762 6.30014 17.1987 6.00432 17.4168 5.7862C17.6349 5.56809 17.9308 5.44556 18.2392 5.44556H22.8914C23.1998 5.44556 23.4957 5.56809 23.7138 5.7862C23.9319 6.00432 24.0544 6.30014 24.0544 6.6086V11.2608C24.0544 11.5692 23.9319 11.8651 23.7138 12.0832C23.4957 12.3013 23.1998 12.4238 22.8914 12.4238H18.2392C17.9308 12.4238 17.6349 12.3013 17.4168 12.0832C17.1987 11.8651 17.0762 11.5692 17.0762 11.2608V6.6086Z" stroke="#1482D9" stroke-width="2.32609" stroke-linecap="round" stroke-linejoin="round"/>
<path d="M8.93555 8.93481V8.94601" stroke="#1482D9" stroke-width="2.32609" stroke-linecap="round" stroke-linejoin="round"/>
<path d="M5.44531 18.2392C5.44531 17.9308 5.56785 17.6349 5.78596 17.4168C6.00407 17.1987 6.2999 17.0762 6.60836 17.0762H11.2605C11.569 17.0762 11.8648 17.1987 12.0829 17.4168C12.301 17.6349 12.4236 17.9308 12.4236 18.2392V22.8914C12.4236 23.1998 12.301 23.4957 12.0829 23.7138C11.8648 23.9319 11.569 24.0544 11.2605 24.0544H6.60836C6.2999 24.0544 6.00407 23.9319 5.78596 23.7138C5.56785 23.4957 5.44531 23.1998 5.44531 22.8914V18.2392Z" stroke="#1482D9" stroke-width="2.32609" stroke-linecap="round" stroke-linejoin="round"/>
<path d="M20.5645 8.93481V8.94601" stroke="#1482D9" stroke-width="2.32609" stroke-linecap="round" stroke-linejoin="round"/>
<path d="M17.0762 17.0762H20.5653" stroke="#1482D9" stroke-width="2.32609" stroke-linecap="round" stroke-linejoin="round"/>
<path d="M24.0547 17.0762V17.0874" stroke="#1482D9" stroke-width="2.32609" stroke-linecap="round" stroke-linejoin="round"/>
<path d="M17.0762 17.0762V20.5653" stroke="#1482D9" stroke-width="2.32609" stroke-linecap="round" stroke-linejoin="round"/>
<path d="M17.0762 24.0544H20.5653" stroke="#1482D9" stroke-width="2.32609" stroke-linecap="round" stroke-linejoin="round"/>
<path d="M20.5645 20.5652H24.0536" stroke="#1482D9" stroke-width="2.32609" stroke-linecap="round" stroke-linejoin="round"/>
<path d="M24.0547 20.5652V24.0543" stroke="#1482D9" stroke-width="2.32609" stroke-linecap="round" stroke-linejoin="round"/>
</g>
<defs>
<clipPath id="clip0_264_652">
<rect width="27.913" height="27.913" fill="white" transform="translate(0.792969 0.793457)"/>
</clipPath>
</defs>
</svg>
