<svg width="25" height="24" viewBox="0 0 25 24" fill="none" xmlns="http://www.w3.org/2000/svg">
<g clip-path="url(#clip0_264_835)">
<path d="M3.5 9C3.5 8.73478 3.60536 8.48043 3.79289 8.29289C3.98043 8.10536 4.23478 8 4.5 8H20.5C20.7652 8 21.0196 8.10536 21.2071 8.29289C21.3946 8.48043 21.5 8.73478 21.5 9V11C21.5 11.2652 21.3946 11.5196 21.2071 11.7071C21.0196 11.8946 20.7652 12 20.5 12H4.5C4.23478 12 3.98043 11.8946 3.79289 11.7071C3.60536 11.5196 3.5 11.2652 3.5 11V9Z" stroke="#1A72FA" stroke-width="2" stroke-linecap="round" stroke-linejoin="round"/>
<path d="M12.5 8V21" stroke="#1A72FA" stroke-width="2" stroke-linecap="round" stroke-linejoin="round"/>
<path d="M19.5 12V19C19.5 19.5304 19.2893 20.0391 18.9142 20.4142C18.5391 20.7893 18.0304 21 17.5 21H7.5C6.96957 21 6.46086 20.7893 6.08579 20.4142C5.71071 20.0391 5.5 19.5304 5.5 19V12" stroke="#1A72FA" stroke-width="2" stroke-linecap="round" stroke-linejoin="round"/>
<path d="M8 7.99995C7.33696 7.99995 6.70107 7.73656 6.23223 7.26772C5.76339 6.79887 5.5 6.16299 5.5 5.49995C5.5 4.83691 5.76339 4.20102 6.23223 3.73218C6.70107 3.26334 7.33696 2.99995 8 2.99995C8.96469 2.98314 9.91003 3.45121 10.7127 4.34311C11.5154 5.23501 12.1383 6.50935 12.5 7.99995C12.8617 6.50935 13.4846 5.23501 14.2873 4.34311C15.09 3.45121 16.0353 2.98314 17 2.99995C17.663 2.99995 18.2989 3.26334 18.7678 3.73218C19.2366 4.20102 19.5 4.83691 19.5 5.49995C19.5 6.16299 19.2366 6.79887 18.7678 7.26772C18.2989 7.73656 17.663 7.99995 17 7.99995" stroke="#1A72FA" stroke-width="2" stroke-linecap="round" stroke-linejoin="round"/>
</g>
<defs>
<clipPath id="clip0_264_835">
<rect width="24" height="24" fill="white" transform="translate(0.5)"/>
</clipPath>
</defs>
</svg>
