<svg width="32" height="33" viewBox="0 0 32 33" fill="none" xmlns="http://www.w3.org/2000/svg">
<g clip-path="url(#clip0_467_938)">
<path d="M9.33333 20.8236H5.33333C4.97971 20.8236 4.64057 20.6831 4.39052 20.433C4.14048 20.183 4 19.8439 4 19.4902V8.82357C4 8.46995 4.14048 8.13081 4.39052 7.88076C4.64057 7.63071 4.97971 7.49023 5.33333 7.49023H21.3333C21.687 7.49023 22.0261 7.63071 22.2761 7.88076C22.5262 8.13081 22.6667 8.46995 22.6667 8.82357V12.8236" stroke="#1A72FA" stroke-width="2.66667" stroke-linecap="round" stroke-linejoin="round"/>
<path d="M16.0007 26.1568H10.6673C10.3137 26.1568 9.97456 26.0163 9.72451 25.7663C9.47446 25.5162 9.33398 25.1771 9.33398 24.8235V14.1568C9.33398 13.8032 9.47446 13.4641 9.72451 13.214C9.97456 12.964 10.3137 12.8235 10.6673 12.8235H26.6673C27.0209 12.8235 27.3601 12.964 27.6101 13.214C27.8602 13.4641 28.0006 13.8032 28.0006 14.1568V17.4902" stroke="#1A72FA" stroke-width="2.66667" stroke-linecap="round" stroke-linejoin="round"/>
<path d="M21.227 18.7393C21.0964 18.2949 20.8522 17.8921 20.5185 17.5707C20.1848 17.2493 19.7732 17.0204 19.3241 16.9065C18.875 16.7926 18.404 16.7977 17.9575 16.9213C17.511 17.0448 17.1044 17.2826 16.7777 17.6111C16.451 17.9396 16.2156 18.3476 16.0945 18.7948C15.9735 19.242 15.9711 19.713 16.0875 20.1614C16.2039 20.6098 16.4351 21.0202 16.7584 21.3521C17.0817 21.6839 17.4858 21.9259 17.931 22.054" stroke="#1A72FA" stroke-width="2.66667" stroke-linecap="round" stroke-linejoin="round"/>
<path d="M21.334 26.1567H29.334" stroke="#1A72FA" stroke-width="2.66667" stroke-linecap="round" stroke-linejoin="round"/>
<path d="M25.334 22.1567L29.334 26.1567L25.334 30.1567" stroke="#1A72FA" stroke-width="2.66667" stroke-linecap="round" stroke-linejoin="round"/>
</g>
<defs>
<clipPath id="clip0_467_938">
<rect width="32" height="32" fill="white" transform="translate(0 0.823486)"/>
</clipPath>
</defs>
</svg>
